<svg width="49" height="52" viewBox="0 0 49 52" fill="none" xmlns="http://www.w3.org/2000/svg">
<path d="M37.5384 50.9994H12.0399C11.8505 50.9994 11.6688 50.9242 11.5349 50.7902C11.4009 50.6563 11.3257 50.4746 11.3257 50.2852V44.4927C11.3275 42.6463 12.0618 40.8761 13.3674 39.5706C14.673 38.265 16.4432 37.5307 18.2895 37.5288H31.2888C33.1351 37.5307 34.9053 38.265 36.2109 39.5706C37.5164 40.8761 38.2507 42.6463 38.2526 44.4927V50.2852C38.2526 50.4746 38.1774 50.6563 38.0434 50.7902C37.9095 50.9242 37.7278 50.9994 37.5384 50.9994ZM12.7541 49.571H36.8241V44.4927C36.8223 43.0252 36.2385 41.6183 35.2008 40.5807C34.1631 39.543 32.7563 38.9592 31.2888 38.9573H18.2895C16.822 38.9592 15.4152 39.543 14.3775 40.5807C13.3398 41.6183 12.756 43.0252 12.7541 44.4927V49.571Z" fill="#02768D" stroke="#02768D" stroke-width="0.5"/>
<path d="M24.7888 35.1436C23.3535 35.1436 21.9505 34.718 20.7571 33.9206C19.5638 33.1232 18.6337 31.9899 18.0844 30.6639C17.5352 29.3379 17.3915 27.8788 17.6715 26.4711C17.9515 25.0635 18.6426 23.7704 19.6575 22.7556C20.6724 21.7407 21.9654 21.0496 23.373 20.7696C24.7807 20.4896 26.2398 20.6333 27.5658 21.1825C28.8918 21.7318 30.0251 22.6619 30.8225 23.8552C31.6199 25.0486 32.0455 26.4516 32.0455 27.8868C32.0436 29.8109 31.2784 31.6555 29.9179 33.016C28.5575 34.3765 26.7128 35.1417 24.7888 35.1436ZM24.7888 22.0586C23.636 22.0586 22.5092 22.4004 21.5508 23.0409C20.5923 23.6813 19.8453 24.5915 19.4042 25.6565C18.9631 26.7214 18.8476 27.8933 19.0725 29.0239C19.2974 30.1544 19.8525 31.1929 20.6676 32.008C21.4827 32.8231 22.5212 33.3782 23.6517 33.6031C24.7823 33.828 25.9542 33.7125 27.0191 33.2714C28.0841 32.8303 28.9943 32.0833 29.6348 31.1248C30.2752 30.1664 30.617 29.0396 30.617 27.8868C30.6151 26.3417 30.0004 24.8603 28.9078 23.7678C27.8153 22.6752 26.3339 22.0605 24.7888 22.0586Z" fill="#02768D" stroke="#02768D" stroke-width="0.5"/>
<path d="M31.6239 51H17.9533C17.7639 51 17.5822 50.9248 17.4483 50.7908C17.3143 50.6569 17.2391 50.4752 17.2391 50.2858V46.3431C17.2391 46.1537 17.3143 45.972 17.4483 45.8381C17.5822 45.7042 17.7639 45.6289 17.9533 45.6289C18.1427 45.6289 18.3244 45.7042 18.4584 45.8381C18.5923 45.972 18.6676 46.1537 18.6676 46.3431V49.5715H30.9097V46.3431C30.9097 46.1537 30.9849 45.972 31.1189 45.8381C31.2528 45.7042 31.4345 45.6289 31.6239 45.6289C31.8134 45.6289 31.995 45.7042 32.129 45.8381C32.2629 45.972 32.3382 46.1537 32.3382 46.3431V50.2858C32.3382 50.4752 32.2629 50.6569 32.129 50.7908C31.995 50.9248 31.8134 51 31.6239 51Z" fill="#02768D" stroke="#02768D" stroke-width="0.5"/>
<path d="M28.9026 15.0878C28.7863 15.0863 28.6718 15.0595 28.5669 15.0093L24.7886 13.0165L21.0102 15.0093C20.8914 15.0719 20.7574 15.0997 20.6235 15.0896C20.4896 15.0795 20.3612 15.0318 20.2531 14.9521C20.1436 14.8718 20.0592 14.762 20.0099 14.6355C19.9606 14.509 19.9483 14.3711 19.9746 14.2379L20.6888 10.031L17.6461 7.05972C17.552 6.96674 17.4854 6.84941 17.454 6.72083C17.4226 6.59225 17.4276 6.45747 17.4683 6.33154C17.5091 6.20561 17.584 6.09347 17.6848 6.00765C17.7855 5.92182 17.9082 5.86569 18.039 5.84551L22.2673 5.23126L24.1458 1.40291C24.2042 1.28215 24.2956 1.18031 24.4093 1.10905C24.5229 1.03779 24.6544 1 24.7886 1C24.9228 1 25.0542 1.03779 25.1679 1.10905C25.2816 1.18031 25.3729 1.28215 25.4314 1.40291L27.317 5.23126L31.5453 5.84551C31.6761 5.86569 31.7988 5.92182 31.8995 6.00765C32.0003 6.09347 32.0752 6.20561 32.116 6.33154C32.1567 6.45747 32.1617 6.59225 32.1303 6.72083C32.0989 6.84941 32.0324 6.96674 31.9382 7.05972L28.8812 10.0453L29.5954 14.2522C29.6217 14.3854 29.6095 14.5233 29.5601 14.6498C29.5108 14.7763 29.4264 14.8861 29.3169 14.9664C29.1946 15.0486 29.0499 15.091 28.9026 15.0878ZM24.7886 11.5166C24.9037 11.5162 25.0169 11.5458 25.1171 11.6023L27.9741 13.0879L27.4313 9.93812C27.4113 9.82331 27.4198 9.70535 27.4559 9.59455C27.492 9.48375 27.5547 9.38346 27.6384 9.30244L29.9311 7.07401L26.767 6.60975C26.6486 6.59334 26.5362 6.54746 26.4401 6.47633C26.344 6.4052 26.2673 6.31109 26.2171 6.20263L24.7886 3.34565L23.3601 6.20263C23.3077 6.30617 23.231 6.3954 23.1364 6.4626C23.0418 6.52981 22.9323 6.57295 22.8173 6.58832L19.6532 7.05258L21.9316 9.28102C22.0154 9.36204 22.078 9.46232 22.1141 9.57312C22.1503 9.68393 22.1587 9.80188 22.1387 9.91669L21.5959 13.0665L24.4529 11.5809C24.5552 11.5231 24.6711 11.4935 24.7886 11.4952V11.5166Z" fill="#02768D" stroke="#02768D" stroke-width="0.5"/>
<path d="M45.331 24.5728C45.2147 24.5713 45.1002 24.5445 44.9953 24.4942L41.217 22.5229L37.4386 24.5085C37.3198 24.5711 37.1858 24.599 37.0519 24.5889C36.9179 24.5788 36.7896 24.5311 36.6815 24.4514C36.572 24.3711 36.4876 24.2613 36.4383 24.1348C36.389 24.0083 36.3767 23.8704 36.403 23.7371L37.1172 19.5302L34.0745 16.5661C33.9781 16.473 33.9099 16.3545 33.8776 16.2244C33.8453 16.0942 33.8503 15.9576 33.8921 15.8302C33.9338 15.7028 34.0106 15.5897 34.1136 15.5038C34.2166 15.418 34.3417 15.3629 34.4745 15.3448L38.7028 14.7305L40.5884 10.9022C40.6469 10.7814 40.7382 10.6796 40.8519 10.6083C40.9656 10.5371 41.0971 10.4993 41.2313 10.4993C41.3654 10.4993 41.4969 10.5371 41.6106 10.6083C41.7243 10.6796 41.8156 10.7814 41.8741 10.9022L43.7597 14.7305L47.988 15.3448C48.1185 15.3672 48.2402 15.4255 48.3396 15.5131C48.4389 15.6007 48.5119 15.7142 48.5504 15.8409C48.5889 15.9676 48.5915 16.1025 48.5577 16.2306C48.524 16.3587 48.4553 16.4748 48.3594 16.5661L45.3096 19.5731L46.0238 23.78C46.0493 23.9139 46.036 24.0523 45.9854 24.1789C45.9347 24.3054 45.8489 24.4149 45.7381 24.4942C45.6132 24.5601 45.4715 24.5874 45.331 24.5728ZM41.217 21.0016C41.3315 20.9987 41.4447 21.0258 41.5455 21.0801L44.4025 22.5658L43.8597 19.416C43.8397 19.3011 43.8482 19.1832 43.8843 19.0724C43.9204 18.9616 43.983 18.8613 44.0668 18.7803L46.3595 16.5518L43.1883 16.0876C43.0746 16.0711 42.9665 16.0275 42.8732 15.9603C42.78 15.8932 42.7043 15.8045 42.6526 15.7019L41.2241 12.8449L39.7956 15.7019C39.7433 15.8054 39.6665 15.8947 39.5719 15.9619C39.4773 16.0291 39.3678 16.0722 39.2528 16.0876L36.0887 16.5518L38.36 18.7803C38.4438 18.8613 38.5064 18.9616 38.5425 19.0724C38.5786 19.1832 38.5871 19.3011 38.5671 19.416L38.0243 22.5658L40.8813 21.0801C40.9851 21.0269 41.1003 21 41.217 21.0016Z" fill="#02768D" stroke="#02768D" stroke-width="0.5"/>
<path d="M12.4753 24.5728C12.359 24.5713 12.2445 24.5445 12.1396 24.4942L8.36128 22.5229L4.58293 24.5085C4.46499 24.5697 4.33231 24.5968 4.19983 24.5867C4.06734 24.5766 3.9403 24.5297 3.83298 24.4514C3.72217 24.372 3.63638 24.2626 3.58576 24.136C3.53513 24.0094 3.52178 23.871 3.54728 23.7371L4.26152 19.5302L1.21885 16.5661C1.12256 16.4734 1.05423 16.3556 1.0216 16.2259C0.988979 16.0963 0.99338 15.9602 1.0343 15.8329C1.07523 15.7057 1.15104 15.5925 1.2531 15.5062C1.35517 15.4199 1.47941 15.364 1.61168 15.3448L5.84 14.7305L7.72561 10.9022C7.78409 10.7814 7.87541 10.6796 7.9891 10.6083C8.10279 10.5371 8.23425 10.4993 8.36842 10.4993C8.5026 10.4993 8.63406 10.5371 8.74775 10.6083C8.86144 10.6796 8.95276 10.7814 9.01124 10.9022L10.8968 14.7305L15.1252 15.3448C15.2563 15.3661 15.3788 15.4236 15.479 15.5108C15.5793 15.598 15.6532 15.7114 15.6925 15.8383C15.7318 15.9651 15.735 16.1005 15.7017 16.2291C15.6683 16.3576 15.5998 16.4744 15.5037 16.5661L12.4539 19.5731L13.1681 23.78C13.186 23.8834 13.1808 23.9895 13.153 24.0907C13.1252 24.1919 13.0754 24.2858 13.0073 24.3655C12.9391 24.4453 12.8541 24.5091 12.7585 24.5523C12.6628 24.5956 12.5588 24.6172 12.4539 24.6157L12.4753 24.5728ZM8.36128 21.0016C8.47792 21 8.59317 21.0269 8.69698 21.0801L11.554 22.5658L11.0111 19.416C10.9912 19.3011 10.9996 19.1832 11.0357 19.0724C11.0718 18.9616 11.1345 18.8613 11.2183 18.7803L13.511 16.5518L10.3469 16.0876C10.2319 16.0722 10.1223 16.0291 10.0278 15.9619C9.93319 15.8947 9.8564 15.8054 9.80405 15.7019L8.37557 12.8449L6.94708 15.7019C6.8954 15.8045 6.81972 15.8932 6.72647 15.9603C6.63321 16.0275 6.52513 16.0711 6.4114 16.0876L3.24016 16.5518L5.50431 18.7803C5.58807 18.8613 5.65074 18.9616 5.68684 19.0724C5.72295 19.1832 5.73139 19.3011 5.71144 19.416L5.16861 22.5658L8.02559 21.0801C8.1285 21.0245 8.24439 20.9974 8.36128 21.0016Z" fill="#02768D" stroke="#02768D" stroke-width="0.5"/>
</svg>
