<svg width="53" height="50" viewBox="0 0 53 50" fill="none" xmlns="http://www.w3.org/2000/svg">
<path d="M42.0154 29.4129C42.4805 29.8777 43.234 29.8776 43.6991 29.4129C45.8043 27.3076 45.8043 23.8821 43.6991 21.7769C43.2342 21.312 42.4806 21.312 42.0154 21.7769C41.5505 22.2418 41.5505 22.9956 42.0154 23.4605C43.1923 24.6374 43.1923 26.5524 42.0154 27.7293C41.5504 28.1942 41.5504 28.948 42.0154 29.4129Z" fill="#02768D"/>
<path d="M47.3844 31.3908C49.0709 29.7044 49.9997 27.4622 49.9997 25.0773C49.9997 20.143 46.0063 16.1487 41.0711 16.1487C38.6862 16.1487 36.4439 17.0774 34.7575 18.7639L26.7853 26.7359V9.60097C26.7853 4.67774 22.7799 0.672363 17.8567 0.672363C12.9335 0.672363 8.9281 4.67774 8.9281 9.60097V32.2201C8.9281 36.5452 12.0159 40.1842 16.1504 40.9832C16.1011 45.9702 20.1227 49.9999 25.0767 49.9999C27.4616 49.9999 29.7039 49.0711 31.3903 47.3848L40.2284 38.5466C46.2726 32.5025 38.1073 40.6682 47.3844 31.3908ZM36.4411 20.4474C38.9998 17.8886 43.1417 17.8881 45.7007 20.4474C48.2598 23.0063 48.26 27.1481 45.7007 29.7071L39.3874 36.0206L30.1277 26.7609L36.4411 20.4474ZM17.8567 3.05344C21.4671 3.05344 24.4043 5.99072 24.4043 9.60109V18.5297H11.3091V9.60109C11.3091 5.99072 14.2463 3.05344 17.8567 3.05344ZM11.3091 32.2201V20.9105H24.4043V29.1169L18.7634 34.7579C17.671 35.8504 16.8988 37.1767 16.4888 38.6232C13.5155 37.993 11.3091 35.3517 11.3091 32.2201ZM29.7067 45.7014C28.4701 46.9379 26.8258 47.6191 25.0768 47.6191C21.4585 47.6191 18.5292 44.6906 18.5292 41.0715C18.5292 39.323 19.21 37.6786 20.4469 36.4416L28.444 28.4445L37.7037 37.7042L29.7067 45.7014Z" fill="#02768D"/>
<path d="M3.57144 38.0955C1.60215 38.0955 0 39.6976 0 41.6669C0 43.6362 1.60215 45.2383 3.57144 45.2383C5.54073 45.2383 7.14288 43.6362 7.14288 41.6669C7.14288 39.6976 5.54073 38.0955 3.57144 38.0955ZM3.57144 42.8574C2.91501 42.8574 2.38096 42.3233 2.38096 41.6669C2.38096 41.0105 2.91501 40.4764 3.57144 40.4764C4.22787 40.4764 4.76192 41.0105 4.76192 41.6669C4.76192 42.3233 4.22787 42.8574 3.57144 42.8574Z" fill="#02768D"/>
<path d="M39.2856 9.52384C41.9113 9.52384 44.0475 7.38764 44.0475 4.76192C44.0475 2.1362 41.9113 0 39.2856 0C36.6599 0 34.5237 2.1362 34.5237 4.76192C34.5237 7.38764 36.6599 9.52384 39.2856 9.52384ZM39.2856 2.38096C40.5985 2.38096 41.6666 3.44906 41.6666 4.76192C41.6666 6.07478 40.5985 7.14288 39.2856 7.14288C37.9727 7.14288 36.9046 6.07478 36.9046 4.76192C36.9046 3.44906 37.9727 2.38096 39.2856 2.38096Z" fill="#02768D"/>
<path d="M48.8102 35.7146C46.8409 35.7146 45.2388 37.3167 45.2388 39.286C45.2388 41.2553 46.8409 42.8575 48.8102 42.8575C50.7795 42.8575 52.3817 41.2553 52.3817 39.286C52.3817 37.3167 50.7795 35.7146 48.8102 35.7146ZM48.8102 40.4765C48.1538 40.4765 47.6197 39.9425 47.6197 39.286C47.6197 38.6296 48.1538 38.0956 48.8102 38.0956C49.4666 38.0956 50.0007 38.6296 50.0007 39.286C50.0007 39.9425 49.4666 40.4765 48.8102 40.4765Z" fill="#02768D"/>
<path d="M3.57158 13.0956C4.22907 13.0956 4.76207 12.5626 4.76207 11.9051C4.76207 11.2476 4.22907 10.7146 3.57158 10.7146C2.9141 10.7146 2.3811 11.2476 2.3811 11.9051C2.3811 12.5626 2.9141 13.0956 3.57158 13.0956Z" fill="#02768D"/>
<path d="M40.4756 45.2384C41.1331 45.2384 41.6661 44.7054 41.6661 44.0479C41.6661 43.3904 41.1331 42.8574 40.4756 42.8574C39.8182 42.8574 39.2852 43.3904 39.2852 44.0479C39.2852 44.7054 39.8182 45.2384 40.4756 45.2384Z" fill="#02768D"/>
<path d="M46.4285 13.0956C47.086 13.0956 47.619 12.5626 47.619 11.9051C47.619 11.2476 47.086 10.7146 46.4285 10.7146C45.771 10.7146 45.238 11.2476 45.238 11.9051C45.238 12.5626 45.771 13.0956 46.4285 13.0956Z" fill="#02768D"/>
<path d="M11.9053 46.4281C12.5628 46.4281 13.0958 45.8951 13.0958 45.2376C13.0958 44.5801 12.5628 44.0471 11.9053 44.0471C11.2478 44.0471 10.7148 44.5801 10.7148 45.2376C10.7148 45.8951 11.2478 46.4281 11.9053 46.4281Z" fill="#02768D"/>
</svg>
