<svg width="50" height="50" viewBox="0 0 50 50" fill="none" xmlns="http://www.w3.org/2000/svg">
<path d="M43.9679 4.61176V3.42781C43.9655 2.51943 43.6036 1.64895 42.9613 1.00663C42.319 0.364313 41.4485 0.00239957 40.5401 0C39.6313 0.000990835 38.76 0.362452 38.1174 1.00508C37.4748 1.6477 37.1133 2.519 37.1123 3.42781V4.55615H33.6043V3.42781C33.6043 2.51962 33.2439 1.64856 32.6022 1.00587C31.9605 0.363185 31.09 0.00141683 30.1818 0C29.2731 0.00113206 28.4018 0.362639 27.7592 1.00523C27.1166 1.64783 26.7551 2.51904 26.754 3.42781V4.55615H23.246V3.42781C23.246 2.97801 23.1574 2.53262 22.9853 2.11707C22.8131 1.70151 22.5608 1.32393 22.2428 1.00587C21.9247 0.687819 21.5472 0.435526 21.1316 0.263397C20.716 0.0912676 20.2706 0.00267335 19.8209 0.00267335C19.3711 0.00267335 18.9257 0.0912676 18.5101 0.263397C18.0946 0.435526 17.717 0.687819 17.3989 1.00587C17.0809 1.32393 16.8286 1.70151 16.6564 2.11707C16.4843 2.53262 16.3957 2.97801 16.3957 3.42781V4.55615H12.8877V3.42781C12.8853 2.51943 12.5234 1.64895 11.8811 1.00663C11.2387 0.364313 10.3683 0.00239957 9.45989 0C8.55113 0.00113206 7.67991 0.362639 7.03732 1.00523C6.39472 1.64783 6.03322 2.51904 6.03209 3.42781V4.61176C4.36933 4.8168 2.83871 5.62208 1.72792 6.87625C0.617128 8.13042 0.00265698 9.74711 0 11.4225V43.1337C0.00212293 44.9541 0.726217 46.6993 2.01344 47.9866C3.30066 49.2738 5.0459 49.9979 6.86631 50H43.1337C44.9541 49.9979 46.6993 49.2738 47.9866 47.9866C49.2738 46.6993 49.9979 44.9541 50 43.1337V11.4225C49.9973 9.74711 49.3829 8.13042 48.2721 6.87625C47.1613 5.62208 45.6307 4.8168 43.9679 4.61176ZM38.984 3.42781C38.9845 3.01526 39.1487 2.61978 39.4404 2.32807C39.7321 2.03636 40.1276 1.87222 40.5401 1.87166C40.952 1.87418 41.3464 2.03894 41.6377 2.33023C41.929 2.62152 42.0937 3.01587 42.0963 3.42781V7.55615C42.0963 7.96887 41.9323 8.36468 41.6405 8.65651C41.3486 8.94835 40.9528 9.1123 40.5401 9.1123C40.1274 9.1123 39.7316 8.94835 39.4397 8.65651C39.1479 8.36468 38.984 7.96887 38.984 7.55615V3.42781ZM28.6257 3.42781C28.6261 3.01522 28.7902 2.61966 29.0819 2.32791C29.3737 2.03617 29.7692 1.87208 30.1818 1.87166C30.5937 1.87293 30.9882 2.03746 31.2789 2.32917C31.5696 2.62089 31.7328 3.01597 31.7326 3.42781V7.55615C31.7326 7.96816 31.5689 8.36329 31.2776 8.65462C30.9863 8.94596 30.5912 9.10962 30.1791 9.10962C29.7671 9.10962 29.372 8.94596 29.0807 8.65462C28.7893 8.36329 28.6257 7.96816 28.6257 7.55615V3.42781ZM18.2674 3.42781C18.2674 3.0158 18.431 2.62067 18.7224 2.32933C19.0137 2.038 19.4088 1.87433 19.8209 1.87433C20.2329 1.87433 20.628 2.038 20.9193 2.32933C21.2107 2.62067 21.3743 3.0158 21.3743 3.42781V7.55615C21.3743 7.96816 21.2107 8.36329 20.9193 8.65462C20.628 8.94596 20.2329 9.10962 19.8209 9.10962C19.4088 9.10962 19.0137 8.94596 18.7224 8.65462C18.431 8.36329 18.2674 7.96816 18.2674 7.55615V3.42781ZM7.90374 3.42781C7.90417 3.01522 8.06826 2.61966 8.36 2.32791C8.65174 2.03617 9.04731 1.87208 9.45989 1.87166C9.87183 1.87418 10.2662 2.03894 10.5575 2.33023C10.8488 2.62152 11.0135 3.01587 11.016 3.42781V7.55615C11.016 7.96887 10.8521 8.36468 10.5603 8.65651C10.2684 8.94835 9.87261 9.1123 9.45989 9.1123C9.04718 9.1123 8.65136 8.94835 8.35953 8.65651C8.06769 8.36468 7.90374 7.96887 7.90374 7.55615V3.42781ZM6.03209 6.50321V7.55615C6.03209 8.46526 6.39323 9.33714 7.03607 9.97998C7.67891 10.6228 8.55078 10.984 9.45989 10.984C10.369 10.984 11.2409 10.6228 11.8837 9.97998C12.5266 9.33714 12.8877 8.46526 12.8877 7.55615V6.42781H16.3957V7.55615C16.3957 8.46455 16.7566 9.33575 17.3989 9.97808C18.0413 10.6204 18.9125 10.9813 19.8209 10.9813C20.7293 10.9813 21.6005 10.6204 22.2428 9.97808C22.8851 9.33575 23.246 8.46455 23.246 7.55615V6.42781H26.754V7.55615C26.754 8.46455 27.1149 9.33575 27.7572 9.97808C28.3995 10.6204 29.2707 10.9813 30.1791 10.9813C31.0875 10.9813 31.9587 10.6204 32.6011 9.97808C33.2434 9.33575 33.6043 8.46455 33.6043 7.55615V6.42781H37.1123V7.55615C37.1123 8.46526 37.4734 9.33714 38.1163 9.97998C38.7591 10.6228 39.631 10.984 40.5401 10.984C41.4492 10.984 42.3211 10.6228 42.9639 9.97998C43.6068 9.33714 43.9679 8.46526 43.9679 7.55615V6.50321C45.1302 6.70097 46.1852 7.30316 46.9465 8.20341C47.7078 9.10366 48.1264 10.244 48.1283 11.423V14.2396H1.87166V11.4225C1.87375 10.2436 2.29241 9.10334 3.05369 8.20321C3.81498 7.30307 4.86989 6.70095 6.03209 6.50321ZM43.1337 48.1283H6.86631C5.54212 48.1268 4.27262 47.6001 3.33628 46.6637C2.39994 45.7274 1.87321 44.4579 1.87166 43.1337V16.1123H48.1283V43.1337C48.1268 44.4579 47.6001 45.7274 46.6637 46.6637C45.7274 47.6001 44.4579 48.1268 43.1337 48.1283Z" fill="#d2181d"/>
<path d="M13.0667 20.7935H9.28805C8.63023 20.7943 7.9996 21.056 7.53445 21.5211C7.0693 21.9863 6.80761 22.6169 6.80676 23.2747V27.0534C6.80761 27.7112 7.0693 28.3418 7.53445 28.8069C7.9996 29.2721 8.63023 29.5338 9.28805 29.5346H13.0667C13.7245 29.5338 14.3551 29.2721 14.8203 28.8069C15.2854 28.3418 15.5471 27.7112 15.5479 27.0534V23.2747C15.5471 22.6169 15.2854 21.9863 14.8203 21.5211C14.3551 21.056 13.7245 20.7943 13.0667 20.7935ZM13.6763 27.0534C13.6761 27.215 13.6119 27.37 13.4976 27.4843C13.3833 27.5986 13.2283 27.6628 13.0667 27.663H9.28805C9.12641 27.6628 8.97143 27.5986 8.85713 27.4843C8.74284 27.37 8.67856 27.215 8.67842 27.0534V23.2747C8.67856 23.1131 8.74284 22.9581 8.85713 22.8438C8.97143 22.7295 9.12641 22.6653 9.28805 22.6651H13.0667C13.2283 22.6653 13.3833 22.7295 13.4976 22.8438C13.6119 22.9581 13.6761 23.1131 13.6763 23.2747V27.0534Z" fill="#d2181d"/>
<path d="M26.889 20.7935H23.1104C22.4526 20.7943 21.822 21.056 21.3568 21.5211C20.8917 21.9863 20.63 22.6169 20.6292 23.2747V27.0534C20.63 27.7112 20.8917 28.3418 21.3568 28.8069C21.822 29.2721 22.4526 29.5338 23.1104 29.5346H26.889C27.5469 29.5338 28.1775 29.2721 28.6426 28.8069C29.1078 28.3418 29.3695 27.7112 29.3703 27.0534V23.2747C29.3695 22.6169 29.1078 21.9863 28.6426 21.5211C28.1775 21.056 27.5469 20.7943 26.889 20.7935ZM27.4987 27.0534C27.4985 27.215 27.4343 27.37 27.32 27.4843C27.2057 27.5986 27.0507 27.6628 26.889 27.663H23.1104C22.9488 27.6628 22.7938 27.5986 22.6795 27.4843C22.5652 27.37 22.5009 27.215 22.5008 27.0534V23.2747C22.5009 23.1131 22.5652 22.9581 22.6795 22.8438C22.7938 22.7295 22.9488 22.6653 23.1104 22.6651H26.889C27.0507 22.6653 27.2057 22.7295 27.32 22.8438C27.4343 22.9581 27.4985 23.1131 27.4987 23.2747V27.0534Z" fill="#d2181d"/>
<path d="M41.9251 22.0746L37.7273 26.2703L35.7187 24.2618C35.5422 24.0913 35.3058 23.997 35.0604 23.9992C34.815 24.0014 34.5803 24.0999 34.4068 24.2734C34.2334 24.447 34.135 24.6817 34.1329 24.9271C34.1308 25.1725 34.2252 25.4088 34.3957 25.5853L37.0658 28.2553C37.1526 28.3423 37.2558 28.4113 37.3693 28.4584C37.4829 28.5055 37.6046 28.5297 37.7275 28.5297C37.8504 28.5297 37.9722 28.5055 38.0857 28.4584C38.1993 28.4113 38.3024 28.3423 38.3893 28.2553L43.2486 23.396C43.4242 23.2205 43.5228 22.9824 43.5228 22.7342C43.5228 22.486 43.4242 22.248 43.2486 22.0725C43.0731 21.8969 42.8351 21.7983 42.5869 21.7983C42.3387 21.7983 42.1006 21.8969 41.9251 22.0725V22.0746Z" fill="#d2181d"/>
<path d="M13.0667 33.6843H9.28805C8.63023 33.6852 7.9996 33.9469 7.53445 34.412C7.0693 34.8772 6.80761 35.5078 6.80676 36.1656V39.9442C6.80761 40.602 7.0693 41.2327 7.53445 41.6978C7.9996 42.163 8.63023 42.4247 9.28805 42.4255H13.0667C13.7245 42.4247 14.3551 42.163 14.8203 41.6978C15.2854 41.2327 15.5471 40.602 15.5479 39.9442V36.1656C15.5471 35.5078 15.2854 34.8772 14.8203 34.412C14.3551 33.9469 13.7245 33.6852 13.0667 33.6843ZM13.6763 39.9442C13.6761 40.1059 13.6119 40.2608 13.4976 40.3751C13.3833 40.4894 13.2283 40.5537 13.0667 40.5538H9.28805C9.12641 40.5537 8.97143 40.4894 8.85713 40.3751C8.74284 40.2608 8.67856 40.1059 8.67842 39.9442V36.1656C8.67856 36.004 8.74284 35.849 8.85713 35.7347C8.97143 35.6204 9.12641 35.5561 9.28805 35.556H13.0667C13.2283 35.5561 13.3833 35.6204 13.4976 35.7347C13.6119 35.849 13.6761 36.004 13.6763 36.1656V39.9442Z" fill="#d2181d"/>
<path d="M26.889 33.6843H23.1104C22.4526 33.6852 21.822 33.9469 21.3568 34.412C20.8917 34.8772 20.63 35.5078 20.6292 36.1656V39.9442C20.63 40.602 20.8917 41.2327 21.3568 41.6978C21.822 42.163 22.4526 42.4247 23.1104 42.4255H26.889C27.5469 42.4247 28.1775 42.163 28.6426 41.6978C29.1078 41.2327 29.3695 40.602 29.3703 39.9442V36.1656C29.3695 35.5078 29.1078 34.8772 28.6426 34.412C28.1775 33.9469 27.5469 33.6852 26.889 33.6843ZM27.4987 39.9442C27.4985 40.1059 27.4343 40.2608 27.32 40.3751C27.2057 40.4894 27.0507 40.5537 26.889 40.5538H23.1104C22.9488 40.5537 22.7938 40.4894 22.6795 40.3751C22.5652 40.2608 22.5009 40.1059 22.5008 39.9442V36.1656C22.5009 36.004 22.5652 35.849 22.6795 35.7347C22.7938 35.6204 22.9488 35.5561 23.1104 35.556H26.889C27.0507 35.5561 27.2057 35.6204 27.32 35.7347C27.4343 35.849 27.4985 36.004 27.4987 36.1656V39.9442Z" fill="#d2181d"/>
<path d="M40.7119 33.6843H36.9332C36.2754 33.6852 35.6448 33.9469 35.1797 34.412C34.7145 34.8772 34.4528 35.5078 34.452 36.1656V39.9442C34.4528 40.602 34.7145 41.2327 35.1797 41.6978C35.6448 42.163 36.2754 42.4247 36.9332 42.4255H40.7119C41.3697 42.4247 42.0003 42.163 42.4655 41.6978C42.9306 41.2327 43.1923 40.602 43.1931 39.9442V36.1656C43.1923 35.5078 42.9306 34.8772 42.4655 34.412C42.0003 33.9469 41.3697 33.6852 40.7119 33.6843ZM41.3215 39.9442C41.3213 40.1059 41.2571 40.2608 41.1428 40.3751C41.0285 40.4894 40.8735 40.5537 40.7119 40.5538H36.9332C36.7716 40.5537 36.6166 40.4894 36.5023 40.3751C36.388 40.2608 36.3238 40.1059 36.3236 39.9442V36.1656C36.3238 36.004 36.388 35.849 36.5023 35.7347C36.6166 35.6204 36.7716 35.5561 36.9332 35.556H40.7119C40.8735 35.5561 41.0285 35.6204 41.1428 35.7347C41.2571 35.849 41.3213 36.004 41.3215 36.1656V39.9442Z" fill="#d2181d"/>
</svg>
