<svg width="51" height="50" viewBox="0 0 51 50" fill="none" xmlns="http://www.w3.org/2000/svg">
<path d="M34.1539 30.8768H27.9128L29.213 26.556C29.6107 25.2641 29.4857 23.8677 28.8648 22.667C28.2438 21.4663 27.1766 20.5571 25.8925 20.1349C25.5237 20.0134 25.1338 19.9693 24.7471 20.0054C24.3605 20.0415 23.9855 20.1571 23.6456 20.3449C23.3057 20.5327 23.0082 20.7886 22.7719 21.0967C22.5355 21.4048 22.3653 21.7583 22.2719 22.1353L22.0718 22.9754C21.3174 26.0028 19.7549 28.7683 17.5511 30.9768L16.4109 32.097C16.1211 31.732 15.7533 31.4366 15.3345 31.2323C14.9157 31.0281 14.4564 30.9203 13.9904 30.9168H12.5302C11.7095 30.9167 10.9218 31.24 10.3377 31.8166C9.7536 32.3931 9.42019 33.1766 9.40967 33.9973V46.8795C9.40967 47.7071 9.73844 48.5008 10.3237 49.086C10.9089 49.6712 11.7026 50 12.5302 50H13.9904C14.5276 49.9988 15.0552 49.858 15.5216 49.5915C15.988 49.325 16.3771 48.9419 16.6509 48.4797L16.931 48.6198C18.7389 49.5226 20.7311 49.995 22.7519 50H29.9332C31.1204 50.0058 32.2903 49.7163 33.3379 49.1576C34.3854 48.5989 35.2776 47.7886 35.9342 46.7995C37.3317 44.7099 38.0767 42.2521 38.0746 39.7383V34.7574C38.0746 34.2444 37.9729 33.7365 37.7754 33.2631C37.5779 32.7896 37.2884 32.36 36.9238 31.9991C36.5592 31.6382 36.1267 31.3532 35.6512 31.1606C35.1758 30.9679 34.6669 30.8715 34.1539 30.8768ZM15.0306 46.8795C15.0306 47.1766 14.9126 47.4615 14.7025 47.6716C14.4925 47.8816 14.2075 47.9997 13.9104 47.9997H12.5302C12.2331 47.9997 11.9482 47.8816 11.7381 47.6716C11.528 47.4615 11.41 47.1766 11.41 46.8795V33.9973C11.41 33.7002 11.528 33.4153 11.7381 33.2052C11.9482 32.9951 12.2331 32.8771 12.5302 32.8771H13.9904C14.2735 32.8974 14.5382 33.0243 14.7313 33.2322C14.9244 33.4401 15.0314 33.7135 15.0306 33.9973V46.8795ZM36.0342 39.7383C36.0425 41.8729 35.4159 43.9618 34.2339 45.7393C33.761 46.4463 33.1212 47.026 32.3712 47.4272C31.6211 47.8284 30.7838 48.0388 29.9332 48.0397H22.7519C21.0441 48.038 19.3598 47.6409 17.8311 46.8795L17.031 46.4794V34.1973L18.8713 32.357C21.3335 29.8952 23.0825 26.8121 23.9321 23.4355L24.1322 22.6153C24.1916 22.3959 24.3354 22.2089 24.5322 22.0953C24.6332 22.0512 24.7422 22.0285 24.8523 22.0285C24.9624 22.0285 25.0714 22.0512 25.1724 22.0953C25.5666 22.2263 25.9311 22.4339 26.245 22.7059C26.5589 22.978 26.8162 23.3093 27.0019 23.6809C27.1877 24.0525 27.2984 24.457 27.3277 24.8714C27.357 25.2858 27.3044 25.7019 27.1727 26.0959L25.4924 31.7169C25.4489 31.866 25.4408 32.0231 25.4685 32.1759C25.4963 32.3286 25.5593 32.4728 25.6524 32.597C25.7433 32.7237 25.8637 32.8263 26.0031 32.896C26.1425 32.9657 26.2968 33.0004 26.4526 32.9971H34.0339C34.2808 32.9971 34.5253 33.0458 34.7534 33.1402C34.9816 33.2347 35.1889 33.3732 35.3635 33.5478C35.5381 33.7225 35.6766 33.9297 35.7711 34.1579C35.8656 34.386 35.9142 34.6305 35.9142 34.8774L36.0342 39.7383Z" fill="#d2181d"/>
<path d="M19.0307 11.5932L18.3906 15.2938C18.3136 15.7034 18.3556 16.1264 18.5115 16.5128C18.6675 16.8993 18.931 17.2329 19.2707 17.4742C19.6468 17.7546 20.1019 17.9086 20.5709 17.9143C20.933 17.9085 21.2889 17.8196 21.6111 17.6542L25.0317 15.8939L28.3723 17.6542C28.7396 17.8482 29.1543 17.9342 29.5685 17.9024C29.9826 17.8705 30.3793 17.7221 30.7127 17.4742C31.0489 17.2344 31.3101 16.9041 31.466 16.5216C31.6218 16.1392 31.6658 15.7203 31.5928 15.3138L31.0327 11.5932L33.6532 8.99277C33.9558 8.70655 34.1709 8.34031 34.2736 7.93663C34.3763 7.53295 34.3623 7.10842 34.2333 6.71238C34.104 6.31677 33.8671 5.96498 33.5491 5.69645C33.2311 5.42793 32.8446 5.25329 32.433 5.19212L28.6923 4.65203L27.032 1.23145C26.8453 0.86115 26.5594 0.549963 26.2062 0.332542C25.853 0.115121 25.4464 0 25.0317 0C24.617 0 24.2104 0.115121 23.8572 0.332542C23.504 0.549963 23.2181 0.86115 23.0314 1.23145L21.3711 4.61202L17.6304 5.15212C17.2188 5.21329 16.8323 5.38793 16.5143 5.65645C16.1963 5.92497 15.9594 6.27676 15.8301 6.67238C15.6928 7.0739 15.6744 7.50658 15.7774 7.91827C15.8803 8.32997 16.1001 8.70313 16.4102 8.99277L19.0307 11.5932ZM17.8305 7.13245L22.0912 6.51235C22.2837 6.52481 22.4755 6.48021 22.6428 6.38414C22.81 6.28806 22.9452 6.14479 23.0314 5.97226L25.0317 2.1116C25.0492 2.07329 25.0774 2.04084 25.1129 2.01808C25.1483 1.99532 25.1896 1.98323 25.2317 1.98323C25.2739 1.98323 25.3151 1.99532 25.3506 2.01808C25.386 2.04084 25.4142 2.07329 25.4318 2.1116L27.4321 5.97226C27.504 6.11832 27.6111 6.24419 27.7438 6.33848C27.8765 6.43278 28.0306 6.49253 28.1922 6.51235L32.453 7.13245C32.4944 7.1409 32.5329 7.16015 32.5645 7.18825C32.5961 7.21635 32.6197 7.25231 32.633 7.29248C32.6523 7.32593 32.6625 7.36387 32.6625 7.4025C32.6625 7.44112 32.6523 7.47907 32.633 7.51252L29.5525 10.513C29.436 10.6295 29.3482 10.7714 29.2961 10.9277C29.244 11.0839 29.2291 11.2501 29.2524 11.4132L29.9925 15.6339C30.0061 15.6764 30.0034 15.7225 29.9849 15.7632C29.9665 15.8039 29.9335 15.8362 29.8925 15.8539C29.8579 15.8799 29.8158 15.8939 29.7725 15.8939C29.7292 15.8939 29.6871 15.8799 29.6525 15.8539L25.8518 13.8536C25.7113 13.7747 25.5529 13.7333 25.3918 13.7333C25.2306 13.7333 25.0722 13.7747 24.9317 13.8536L21.111 15.8539C21.0795 15.8783 21.0408 15.8915 21.001 15.8915C20.9612 15.8915 20.9225 15.8783 20.891 15.8539C20.85 15.8362 20.8171 15.8039 20.7986 15.7632C20.7801 15.7225 20.7774 15.6764 20.791 15.6339L21.5311 11.4132C21.5544 11.2501 21.5395 11.0839 21.4874 10.9277C21.4353 10.7714 21.3475 10.6295 21.231 10.513L18.1505 7.51252C18.1312 7.47907 18.121 7.44112 18.121 7.4025C18.121 7.36387 18.1312 7.32593 18.1505 7.29248C18.0986 7.29543 18.0471 7.28141 18.0038 7.25255C17.9605 7.22369 17.9277 7.18154 17.9105 7.13245H17.8305Z" fill="#d2181d"/>
<path d="M11.7097 23.4949C12.0077 23.5003 12.3031 23.4391 12.5743 23.3157C12.8456 23.1923 13.0859 23.0099 13.2776 22.7818C13.4693 22.5536 13.6077 22.2855 13.6825 21.997C13.7573 21.7086 13.7667 21.407 13.71 21.1145L13.17 18.0739L15.4103 15.8936C15.6926 15.6345 15.8945 15.2999 15.9921 14.9294C16.0898 14.5589 16.0789 14.1682 15.9609 13.8037C15.8429 13.4392 15.6228 13.1163 15.3266 12.8733C15.0304 12.6303 14.6707 12.4775 14.2901 12.433L11.2296 11.9929L9.84939 9.21243C9.66522 8.8925 9.4 8.62676 9.08042 8.44198C8.76085 8.2572 8.39822 8.15991 8.02908 8.15991C7.65993 8.15991 7.2973 8.2572 6.97773 8.44198C6.65816 8.62676 6.39293 8.8925 6.20877 9.21243L4.82853 11.9929L1.76801 12.433C1.38749 12.4775 1.02775 12.6303 0.731568 12.8733C0.435382 13.1163 0.215208 13.4392 0.0972223 13.8037C-0.0207634 14.1682 -0.0315972 14.5589 0.0660087 14.9294C0.163615 15.2999 0.365554 15.6345 0.647819 15.8936L2.8682 18.0739L2.32811 21.1145C2.25881 21.4914 2.29926 21.8803 2.44466 22.235C2.59005 22.5896 2.83427 22.895 3.14824 23.1148C3.4549 23.3389 3.81904 23.4711 4.19807 23.4959C4.57711 23.5207 4.95536 23.4371 5.28861 23.2548L8.02908 21.8146L10.7695 23.2548C11.0585 23.4108 11.3814 23.4932 11.7097 23.4949ZM8.02908 19.6942C7.86785 19.6932 7.70919 19.7346 7.569 19.8142L4.30844 21.4545L5.02857 17.8939C5.0397 17.7227 5.00911 17.5513 4.93942 17.3945C4.86974 17.2378 4.76304 17.1002 4.6285 16.9938L2.04806 14.4133L5.64867 13.8932C5.80786 13.8738 5.95943 13.814 6.08898 13.7194C6.21852 13.6249 6.32174 13.4988 6.3888 13.3531L8.04908 10.0926L9.66936 13.3531C9.73642 13.4988 9.83963 13.6249 9.96917 13.7194C10.0987 13.814 10.2503 13.8738 10.4095 13.8932L14.0101 14.4733L11.4297 16.9938C11.3132 17.1102 11.2254 17.2521 11.1733 17.4084C11.1212 17.5646 11.1063 17.7309 11.1296 17.8939L11.7097 21.4945L8.48915 19.8142C8.34896 19.7346 8.1903 19.6932 8.02908 19.6942Z" fill="#d2181d"/>
<path d="M49.9368 13.8132C49.8225 13.4512 49.6076 13.1292 49.3171 12.8848C49.0267 12.6404 48.6727 12.4837 48.2965 12.433L45.236 11.9929L43.8557 9.21243C43.6716 8.8925 43.4063 8.62676 43.0868 8.44198C42.7672 8.2572 42.4046 8.15991 42.0354 8.15991C41.6663 8.15991 41.3037 8.2572 40.9841 8.44198C40.6645 8.62676 40.3993 8.8925 40.2151 9.21243L38.8349 11.9929L35.7744 12.433C35.3938 12.4775 35.0341 12.6303 34.7379 12.8733C34.4417 13.1163 34.2216 13.4392 34.1036 13.8037C33.9856 14.1682 33.9748 14.5589 34.0724 14.9294C34.17 15.2999 34.3719 15.6345 34.6542 15.8936L36.8745 18.0739L36.3345 21.1145C36.2652 21.4914 36.3056 21.8803 36.451 22.235C36.5964 22.5896 36.8406 22.895 37.1546 23.1148C37.4613 23.3389 37.8254 23.4711 38.2044 23.4959C38.5835 23.5207 38.9617 23.4371 39.295 23.2548L42.0354 21.8146L44.7759 23.2548C45.0648 23.4108 45.3877 23.4932 45.7161 23.4949C46.014 23.5003 46.3094 23.4391 46.5807 23.3157C46.852 23.1923 47.0923 23.0099 47.284 22.7818C47.4757 22.5536 47.614 22.2855 47.6888 21.997C47.7637 21.7086 47.7731 21.407 47.7164 21.1145L47.1763 18.0739L49.3967 15.8936C49.6754 15.6342 49.8742 15.3006 49.9699 14.9321C50.0655 14.5636 50.0541 14.1754 49.9368 13.8132ZM45.436 16.9938C45.3195 17.1102 45.2317 17.2521 45.1797 17.4084C45.1276 17.5646 45.1126 17.7309 45.136 17.8939L45.7161 21.4945L42.4955 19.8142C42.355 19.7354 42.1966 19.694 42.0354 19.694C41.8743 19.694 41.7159 19.7354 41.5753 19.8142L38.3148 21.4545L39.0349 17.8939C39.046 17.7227 39.0155 17.5513 38.9458 17.3945C38.8761 17.2378 38.7694 17.1002 38.6348 16.9938L36.0544 14.4133L39.655 13.8932C39.8142 13.8738 39.9658 13.814 40.0953 13.7194C40.2249 13.6249 40.3281 13.4988 40.3951 13.3531L42.0554 10.0926L43.6757 13.3531C43.7428 13.4988 43.846 13.6249 43.9755 13.7194C44.1051 13.814 44.2566 13.8738 44.4158 13.8932L48.0164 14.4733L45.436 16.9938Z" fill="#d2181d"/>
</svg>
